<mxfile host="app.diagrams.net" modified="2024-01-16T03:03:40.249Z" agent="Mozilla/5.0 (Macintosh; Intel Mac OS X 10.15; rv:121.0) Gecko/20100101 Firefox/121.0" version="22.1.18" etag="5id9WtBtx3_4j7xx1hNn" type="github">
  <diagram name="第 1 页" id="1eJY4yMHQLAZgAsQ-UY3">
    <mxGraphModel>
      <root>
        <mxCell id="0" />
        <mxCell id="1" parent="0" />
      </root>
    </mxGraphModel>
  </diagram>
</mxfile>
